# xmcd
#
# Track frame offsets:
#	150
#	17705
#	41825
#	57586
#	82414
#	99242
#	122344
#	139543
#	155160
#	179457
#	201922
#	222141
#	245430
#	267230
#
# Disc length: 3904 seconds
#
# Revision: 1
# Processed by: cddbd v1.5.2PL0 Copyright (c) Steve Scherf et al.
# Submitted via: audiograbber 1.83.01
#
DISCID=cb0f3e0e
DTITLE=The Mighty Bosscats - Bossman
DYEAR=2015
DGENRE=Blues
TTITLE0=Ask The Bossman
TTITLE1=You Are You And I Am I
TTITLE2=Time
TTITLE3=Blues
TTITLE4=Molly's Dive
TTITLE5=Mary Jane
TTITLE6=Cigar Box Blues
TTITLE7=Valentine
TTITLE8=The Guitarist
TTITLE9=That's The Way It Goes
TTITLE10=Who Are You ?
TTITLE11=Friends
TTITLE12=Top Of The World
TTITLE13=Every Day
EXTD=
EXTT0=
EXTT1=
EXTT2=
EXTT3=
EXTT4=
EXTT5=
EXTT6=
EXTT7=
EXTT8=
EXTT9=
EXTT10=
EXTT11=
EXTT12=
EXTT13=
PLAYORDER=
